<svg xmlns="http://www.w3.org/2000/svg" xmlns:xlink="http://www.w3.org/1999/xlink" width="500" zoomAndPan="magnify" viewBox="0 0 375 374.999991" height="500" preserveAspectRatio="xMidYMid meet" version="1.0"><defs><clipPath id="8f05047031"><path d="M 24.765625 39 L 223 39 L 223 342.75 L 24.765625 342.75 Z M 24.765625 39 " clip-rule="nonzero"/></clipPath><clipPath id="2659cc1ea4"><path d="M 24.765625 39 L 223 39 L 223 268 L 24.765625 268 Z M 24.765625 39 " clip-rule="nonzero"/></clipPath><clipPath id="cef4a85d90"><path d="M 293 37.5 L 354 37.5 L 354 98 L 293 98 Z M 293 37.5 " clip-rule="nonzero"/></clipPath></defs><rect x="-37.5" width="450" fill="#ffffff" y="-37.499999" height="449.999989" fill-opacity="1"/><rect x="-37.5" width="450" fill="#000000" y="-37.499999" height="449.999989" fill-opacity="1"/><g clip-path="url(#8f05047031)"><path fill="#ffffff" d="M 103.003906 52.8125 L 208.726562 158.535156 C 209.789062 159.597656 210.796875 160.710938 211.75 161.871094 C 212.699219 163.03125 213.59375 164.234375 214.429688 165.480469 C 215.261719 166.730469 216.03125 168.015625 216.742188 169.339844 C 217.449219 170.664062 218.089844 172.019531 218.664062 173.40625 C 219.238281 174.792969 219.742188 176.207031 220.179688 177.640625 C 220.613281 179.078125 220.980469 180.53125 221.273438 182.003906 C 221.566406 183.476562 221.785156 184.960938 221.929688 186.453125 C 222.078125 187.949219 222.152344 189.445312 222.152344 190.945312 C 222.152344 192.449219 222.078125 193.945312 221.933594 195.441406 C 221.785156 196.933594 221.566406 198.417969 221.273438 199.890625 C 220.980469 201.359375 220.613281 202.816406 220.179688 204.253906 C 219.742188 205.6875 219.238281 207.101562 218.664062 208.488281 C 218.089844 209.875 217.449219 211.230469 216.742188 212.554688 C 216.03125 213.878906 215.261719 215.164062 214.429688 216.410156 C 213.59375 217.660156 212.699219 218.863281 211.75 220.023438 C 210.796875 221.183594 209.789062 222.296875 208.726562 223.359375 L 103.003906 329.082031 C 74.128906 357.957031 24.742188 337.492188 24.765625 296.636719 L 24.765625 85.1875 C 24.742188 44.402344 74.128906 23.9375 103.003906 52.8125 Z M 103.003906 52.8125 " fill-opacity="1" fill-rule="nonzero"/></g><g clip-path="url(#2659cc1ea4)"><path fill="#ffffff" d="M 103.003906 52.8125 C 74.292969 24.101562 25.472656 44.164062 24.789062 84.503906 C 24.789062 84.503906 191.15625 241.917969 164.699219 267.574219 L 208.824219 223.453125 C 209.882812 222.390625 210.890625 221.277344 211.84375 220.117188 C 212.796875 218.957031 213.6875 217.753906 214.523438 216.503906 C 215.355469 215.257812 216.125 213.972656 216.835938 212.648438 C 217.542969 211.324219 218.183594 209.96875 218.757812 208.582031 C 219.332031 207.195312 219.835938 205.78125 220.273438 204.347656 C 220.707031 202.910156 221.074219 201.453125 221.367188 199.984375 C 221.660156 198.511719 221.878906 197.027344 222.027344 195.535156 C 222.171875 194.039062 222.246094 192.542969 222.246094 191.039062 C 222.246094 189.539062 222.171875 188.042969 222.027344 186.546875 C 221.878906 185.054688 221.660156 183.570312 221.367188 182.097656 C 221.074219 180.625 220.707031 179.171875 220.273438 177.734375 C 219.835938 176.300781 219.332031 174.886719 218.757812 173.5 C 218.183594 172.113281 217.542969 170.757812 216.835938 169.433594 C 216.125 168.109375 215.355469 166.824219 214.523438 165.574219 C 213.6875 164.328125 212.796875 163.125 211.84375 161.964844 C 210.890625 160.800781 209.882812 159.691406 208.824219 158.628906 Z M 103.003906 52.8125 " fill-opacity="1" fill-rule="nonzero"/></g><g clip-path="url(#cef4a85d90)"><path fill="#ffffff" d="M 353.6875 67.800781 C 353.6875 68.78125 353.640625 69.761719 353.542969 70.738281 C 353.449219 71.714844 353.304688 72.683594 353.113281 73.644531 C 352.921875 74.605469 352.683594 75.558594 352.398438 76.496094 C 352.113281 77.433594 351.785156 78.359375 351.410156 79.265625 C 351.03125 80.171875 350.613281 81.054688 350.152344 81.921875 C 349.6875 82.785156 349.183594 83.628906 348.640625 84.441406 C 348.09375 85.257812 347.511719 86.046875 346.890625 86.804688 C 346.265625 87.5625 345.609375 88.289062 344.914062 88.984375 C 344.222656 89.675781 343.496094 90.335938 342.738281 90.957031 C 341.980469 91.578125 341.191406 92.164062 340.375 92.707031 C 339.558594 93.253906 338.71875 93.757812 337.855469 94.21875 C 336.988281 94.683594 336.101562 95.101562 335.195312 95.476562 C 334.289062 95.851562 333.367188 96.179688 332.429688 96.464844 C 331.488281 96.75 330.539062 96.988281 329.578125 97.179688 C 328.617188 97.371094 327.644531 97.515625 326.667969 97.613281 C 325.691406 97.707031 324.714844 97.757812 323.734375 97.757812 C 322.753906 97.757812 321.773438 97.707031 320.796875 97.613281 C 319.820312 97.515625 318.851562 97.371094 317.890625 97.179688 C 316.925781 96.988281 315.976562 96.75 315.039062 96.464844 C 314.097656 96.179688 313.175781 95.851562 312.269531 95.476562 C 311.363281 95.101562 310.476562 94.683594 309.613281 94.21875 C 308.746094 93.757812 307.90625 93.253906 307.089844 92.707031 C 306.273438 92.164062 305.488281 91.578125 304.730469 90.957031 C 303.972656 90.335938 303.246094 89.675781 302.550781 88.984375 C 301.859375 88.289062 301.199219 87.5625 300.578125 86.804688 C 299.957031 86.046875 299.371094 85.257812 298.828125 84.441406 C 298.28125 83.628906 297.777344 82.785156 297.316406 81.921875 C 296.851562 81.054688 296.433594 80.171875 296.058594 79.265625 C 295.683594 78.359375 295.351562 77.433594 295.066406 76.496094 C 294.78125 75.558594 294.546875 74.605469 294.355469 73.644531 C 294.164062 72.683594 294.019531 71.714844 293.921875 70.738281 C 293.824219 69.761719 293.777344 68.78125 293.777344 67.800781 C 293.777344 66.820312 293.824219 65.839844 293.921875 64.863281 C 294.019531 63.886719 294.164062 62.917969 294.355469 61.957031 C 294.546875 60.996094 294.78125 60.042969 295.066406 59.105469 C 295.351562 58.167969 295.683594 57.242188 296.058594 56.335938 C 296.433594 55.429688 296.851562 54.546875 297.316406 53.679688 C 297.777344 52.816406 298.28125 51.972656 298.828125 51.160156 C 299.371094 50.34375 299.957031 49.554688 300.578125 48.796875 C 301.199219 48.039062 301.859375 47.3125 302.550781 46.621094 C 303.246094 45.925781 303.972656 45.265625 304.730469 44.644531 C 305.488281 44.023438 306.273438 43.4375 307.089844 42.894531 C 307.90625 42.347656 308.746094 41.84375 309.613281 41.382812 C 310.476562 40.921875 311.363281 40.5 312.269531 40.125 C 313.175781 39.75 314.097656 39.421875 315.039062 39.136719 C 315.976562 38.851562 316.925781 38.613281 317.890625 38.421875 C 318.851562 38.230469 319.820312 38.085938 320.796875 37.988281 C 321.773438 37.894531 322.753906 37.84375 323.734375 37.84375 C 324.714844 37.84375 325.691406 37.894531 326.667969 37.988281 C 327.644531 38.085938 328.617188 38.230469 329.578125 38.421875 C 330.539062 38.613281 331.488281 38.851562 332.429688 39.136719 C 333.367188 39.421875 334.289062 39.75 335.195312 40.125 C 336.101562 40.5 336.988281 40.921875 337.855469 41.382812 C 338.71875 41.84375 339.558594 42.347656 340.375 42.894531 C 341.191406 43.4375 341.980469 44.023438 342.738281 44.644531 C 343.496094 45.265625 344.222656 45.925781 344.914062 46.621094 C 345.609375 47.3125 346.265625 48.039062 346.890625 48.796875 C 347.511719 49.554688 348.09375 50.34375 348.640625 51.160156 C 349.183594 51.972656 349.6875 52.816406 350.152344 53.679688 C 350.613281 54.546875 351.03125 55.429688 351.410156 56.335938 C 351.785156 57.242188 352.113281 58.167969 352.398438 59.105469 C 352.683594 60.042969 352.921875 60.996094 353.113281 61.957031 C 353.304688 62.917969 353.449219 63.886719 353.542969 64.863281 C 353.640625 65.839844 353.6875 66.820312 353.6875 67.800781 Z M 353.6875 67.800781 " fill-opacity="1" fill-rule="nonzero"/><path fill="#ffffff" d="M 353.6875 67.800781 C 353.6875 68.78125 353.640625 69.761719 353.542969 70.738281 C 353.449219 71.714844 353.304688 72.683594 353.113281 73.644531 C 352.921875 74.605469 352.683594 75.558594 352.398438 76.496094 C 352.113281 77.433594 351.785156 78.359375 351.410156 79.265625 C 351.03125 80.171875 350.613281 81.054688 350.152344 81.921875 C 349.6875 82.785156 349.183594 83.628906 348.640625 84.441406 C 348.09375 85.257812 347.511719 86.046875 346.890625 86.804688 C 346.265625 87.5625 345.609375 88.289062 344.914062 88.984375 C 344.222656 89.675781 343.496094 90.335938 342.738281 90.957031 C 341.980469 91.578125 341.191406 92.164062 340.375 92.707031 C 339.558594 93.253906 338.71875 93.757812 337.855469 94.21875 C 336.988281 94.683594 336.101562 95.101562 335.195312 95.476562 C 334.289062 95.851562 333.367188 96.179688 332.429688 96.464844 C 331.488281 96.75 330.539062 96.988281 329.578125 97.179688 C 328.617188 97.371094 327.644531 97.515625 326.667969 97.613281 C 325.691406 97.707031 324.714844 97.757812 323.734375 97.757812 C 322.753906 97.757812 321.773438 97.707031 320.796875 97.613281 C 319.820312 97.515625 318.851562 97.371094 317.890625 97.179688 C 316.925781 96.988281 315.976562 96.75 315.039062 96.464844 C 314.097656 96.179688 313.175781 95.851562 312.269531 95.476562 C 311.363281 95.101562 310.476562 94.683594 309.613281 94.21875 C 308.746094 93.757812 307.90625 93.253906 307.089844 92.707031 C 306.273438 92.164062 305.488281 91.578125 304.730469 90.957031 C 303.972656 90.335938 303.246094 89.675781 302.550781 88.984375 C 301.859375 88.289062 301.199219 87.5625 300.578125 86.804688 C 299.957031 86.046875 299.371094 85.257812 298.828125 84.441406 C 298.28125 83.628906 297.777344 82.785156 297.316406 81.921875 C 296.851562 81.054688 296.433594 80.171875 296.058594 79.265625 C 295.683594 78.359375 295.351562 77.433594 295.066406 76.496094 C 294.78125 75.558594 294.546875 74.605469 294.355469 73.644531 C 294.164062 72.683594 294.019531 71.714844 293.921875 70.738281 C 293.824219 69.761719 293.777344 68.78125 293.777344 67.800781 C 293.777344 66.820312 293.824219 65.839844 293.921875 64.863281 C 294.019531 63.886719 294.164062 62.917969 294.355469 61.957031 C 294.546875 60.996094 294.78125 60.042969 295.066406 59.105469 C 295.351562 58.167969 295.683594 57.242188 296.058594 56.335938 C 296.433594 55.429688 296.851562 54.546875 297.316406 53.679688 C 297.777344 52.816406 298.28125 51.972656 298.828125 51.160156 C 299.371094 50.34375 299.957031 49.554688 300.578125 48.796875 C 301.199219 48.039062 301.859375 47.3125 302.550781 46.621094 C 303.246094 45.925781 303.972656 45.265625 304.730469 44.644531 C 305.488281 44.023438 306.273438 43.4375 307.089844 42.894531 C 307.90625 42.347656 308.746094 41.84375 309.613281 41.382812 C 310.476562 40.921875 311.363281 40.5 312.269531 40.125 C 313.175781 39.75 314.097656 39.421875 315.039062 39.136719 C 315.976562 38.851562 316.925781 38.613281 317.890625 38.421875 C 318.851562 38.230469 319.820312 38.085938 320.796875 37.988281 C 321.773438 37.894531 322.753906 37.84375 323.734375 37.84375 C 324.714844 37.84375 325.691406 37.894531 326.667969 37.988281 C 327.644531 38.085938 328.617188 38.230469 329.578125 38.421875 C 330.539062 38.613281 331.488281 38.851562 332.429688 39.136719 C 333.367188 39.421875 334.289062 39.75 335.195312 40.125 C 336.101562 40.5 336.988281 40.921875 337.855469 41.382812 C 338.71875 41.84375 339.558594 42.347656 340.375 42.894531 C 341.191406 43.4375 341.980469 44.023438 342.738281 44.644531 C 343.496094 45.265625 344.222656 45.925781 344.914062 46.621094 C 345.609375 47.3125 346.265625 48.039062 346.890625 48.796875 C 347.511719 49.554688 348.09375 50.34375 348.640625 51.160156 C 349.183594 51.972656 349.6875 52.816406 350.152344 53.679688 C 350.613281 54.546875 351.03125 55.429688 351.410156 56.335938 C 351.785156 57.242188 352.113281 58.167969 352.398438 59.105469 C 352.683594 60.042969 352.921875 60.996094 353.113281 61.957031 C 353.304688 62.917969 353.449219 63.886719 353.542969 64.863281 C 353.640625 65.839844 353.6875 66.820312 353.6875 67.800781 Z M 353.6875 67.800781 " fill-opacity="1" fill-rule="nonzero"/></g><path fill="#ffffff" d="M 340.25 158.792969 L 234.523438 53.070312 C 206.144531 24.664062 130.492188 57.605469 156.382812 83.496094 L 232.410156 159.546875 C 233.472656 160.605469 234.480469 161.71875 235.433594 162.875 C 236.386719 164.035156 237.277344 165.242188 238.113281 166.488281 C 238.949219 167.734375 239.71875 169.019531 240.425781 170.34375 C 241.136719 171.667969 241.777344 173.023438 242.351562 174.410156 C 242.925781 175.796875 243.429688 177.207031 243.867188 178.644531 C 244.304688 180.078125 244.667969 181.53125 244.960938 183.003906 C 245.253906 184.476562 245.472656 185.960938 245.621094 187.453125 C 245.769531 188.945312 245.84375 190.445312 245.84375 191.945312 C 245.84375 193.445312 245.769531 194.945312 245.621094 196.4375 C 245.472656 197.929688 245.253906 199.414062 244.960938 200.886719 C 244.667969 202.359375 244.304688 203.8125 243.867188 205.246094 C 243.429688 206.683594 242.925781 208.09375 242.351562 209.480469 C 241.777344 210.867188 241.136719 212.222656 240.425781 213.546875 C 239.71875 214.871094 238.949219 216.15625 238.113281 217.402344 C 237.277344 218.648438 236.386719 219.855469 235.433594 221.015625 C 234.480469 222.171875 233.472656 223.285156 232.410156 224.34375 L 156.429688 300.347656 C 133.265625 323.492188 206.425781 357.628906 234.523438 329.527344 L 340.25 223.804688 C 341.320312 222.742188 342.332031 221.628906 343.289062 220.46875 C 344.25 219.304688 345.148438 218.097656 345.988281 216.847656 C 346.828125 215.597656 347.605469 214.308594 348.316406 212.980469 C 349.03125 211.652344 349.675781 210.292969 350.253906 208.902344 C 350.832031 207.511719 351.339844 206.09375 351.78125 204.652344 C 352.21875 203.210938 352.585938 201.75 352.882812 200.273438 C 353.175781 198.796875 353.398438 197.308594 353.546875 195.808594 C 353.695312 194.308594 353.769531 192.804688 353.769531 191.300781 C 353.769531 189.792969 353.695312 188.289062 353.546875 186.789062 C 353.398438 185.289062 353.175781 183.800781 352.882812 182.324219 C 352.585938 180.847656 352.21875 179.386719 351.78125 177.945312 C 351.339844 176.503906 350.832031 175.089844 350.253906 173.699219 C 349.675781 172.304688 349.03125 170.945312 348.316406 169.621094 C 347.605469 168.292969 346.828125 167.003906 345.988281 165.75 C 345.148438 164.5 344.25 163.292969 343.289062 162.132812 C 342.332031 160.96875 341.320312 159.855469 340.25 158.792969 Z M 340.25 158.792969 " fill-opacity="1" fill-rule="nonzero"/><path fill="#ffffff" d="M 340.25 158.792969 L 234.523438 53.070312 C 206.144531 24.664062 130.492188 57.605469 156.382812 83.496094 L 232.410156 159.546875 C 234.234375 161.367188 235.890625 163.324219 237.378906 165.425781 C 238.871094 167.523438 240.171875 169.734375 241.289062 172.054688 C 242.40625 174.375 243.320312 176.773438 244.027344 179.25 C 244.738281 181.722656 245.238281 184.242188 245.519531 186.800781 C 271.71875 217.554688 293.496094 247.414062 298.03125 266.023438 L 340.320312 223.734375 C 341.386719 222.671875 342.394531 221.558594 343.351562 220.394531 C 344.304688 219.230469 345.199219 218.023438 346.035156 216.773438 C 346.875 215.523438 347.644531 214.234375 348.355469 212.90625 C 349.066406 211.582031 349.707031 210.222656 350.28125 208.832031 C 350.859375 207.441406 351.363281 206.027344 351.800781 204.585938 C 352.234375 203.148438 352.601562 201.6875 352.894531 200.210938 C 353.1875 198.738281 353.40625 197.25 353.550781 195.753906 C 353.699219 194.253906 353.769531 192.753906 353.769531 191.25 C 353.765625 189.746094 353.691406 188.242188 353.542969 186.746094 C 353.390625 185.25 353.167969 183.761719 352.875 182.289062 C 352.578125 180.8125 352.210938 179.355469 351.769531 177.917969 C 351.332031 176.476562 350.824219 175.0625 350.246094 173.675781 C 349.664062 172.285156 349.019531 170.929688 348.308594 169.601562 C 347.597656 168.277344 346.820312 166.992188 345.980469 165.742188 C 345.144531 164.492188 344.246094 163.289062 343.285156 162.125 C 342.328125 160.964844 341.316406 159.855469 340.25 158.792969 Z M 340.25 158.792969 " fill-opacity="1" fill-rule="nonzero"/></svg>