<svg xmlns="http://www.w3.org/2000/svg" xmlns:xlink="http://www.w3.org/1999/xlink" width="200" zoomAndPan="magnify" viewBox="0 0 150 44.999999" height="60" preserveAspectRatio="xMidYMid meet" version="1.0"><defs><g/><clipPath id="106e597880"><path d="M 2.214844 1.707031 L 30 1.707031 L 30 42.957031 L 2.214844 42.957031 Z M 2.214844 1.707031 " clip-rule="nonzero"/></clipPath><clipPath id="3bd94d45e9"><path d="M 2.214844 1.707031 L 30 1.707031 L 30 34 L 2.214844 34 Z M 2.214844 1.707031 " clip-rule="nonzero"/></clipPath><clipPath id="836fdd1612"><path d="M 38 1.707031 L 47 1.707031 L 47 10 L 38 10 Z M 38 1.707031 " clip-rule="nonzero"/></clipPath><clipPath id="5e90b6f1e0"><path d="M 19 2 L 47 2 L 47 42.957031 L 19 42.957031 Z M 19 2 " clip-rule="nonzero"/></clipPath><clipPath id="280dc51b18"><path d="M 88.667969 30.078125 L 138.167969 30.078125 L 138.167969 44.328125 L 88.667969 44.328125 Z M 88.667969 30.078125 " clip-rule="nonzero"/></clipPath><clipPath id="d02435a92d"><path d="M 126.324219 33.601562 L 134.574219 33.601562 L 134.574219 41.851562 L 126.324219 41.851562 Z M 126.324219 33.601562 " clip-rule="nonzero"/></clipPath><clipPath id="f07563a283"><path d="M 130.425781 34.777344 C 130.246094 34.503906 129.574219 33.605469 128.382812 33.605469 C 126.984375 33.605469 126.324219 34.8125 126.324219 35.808594 C 126.324219 36.804688 126.773438 37.65625 127.191406 38.300781 C 127.816406 39.265625 129.96875 41.554688 130.410156 41.832031 C 130.433594 41.847656 130.464844 41.847656 130.492188 41.832031 C 130.929688 41.558594 133.082031 39.265625 133.710938 38.300781 C 134.132812 37.660156 134.574219 36.808594 134.574219 35.808594 C 134.574219 34.808594 133.914062 33.605469 132.515625 33.605469 C 131.324219 33.605469 130.652344 34.503906 130.472656 34.777344 L 130.449219 34.816406 Z M 130.425781 34.777344 " clip-rule="nonzero"/></clipPath><linearGradient x1="250" gradientTransform="matrix(0.0242718, 0, 0, 0.0243791, 124.38124, 31.630729)" y1="80.99994" x2="250" gradientUnits="userSpaceOnUse" y2="419.099907" id="bc5846d2e8"><stop stop-opacity="1" stop-color="rgb(100%, 0%, 0%)" offset="0"/><stop stop-opacity="1" stop-color="rgb(100%, 0%, 0%)" offset="0.03125"/><stop stop-opacity="1" stop-color="rgb(99.885559%, 0%, 0%)" offset="0.046875"/><stop stop-opacity="1" stop-color="rgb(99.636841%, 0%, 0%)" offset="0.0625"/><stop stop-opacity="1" stop-color="rgb(99.368286%, 0%, 0%)" offset="0.078125"/><stop stop-opacity="1" stop-color="rgb(99.098206%, 0%, 0%)" offset="0.09375"/><stop stop-opacity="1" stop-color="rgb(98.829651%, 0%, 0%)" offset="0.109375"/><stop stop-opacity="1" stop-color="rgb(98.561096%, 0%, 0%)" offset="0.125"/><stop stop-opacity="1" stop-color="rgb(98.291016%, 0%, 0%)" offset="0.140625"/><stop stop-opacity="1" stop-color="rgb(98.022461%, 0%, 0%)" offset="0.15625"/><stop stop-opacity="1" stop-color="rgb(97.753906%, 0%, 0%)" offset="0.171875"/><stop stop-opacity="1" stop-color="rgb(97.483826%, 0%, 0%)" offset="0.1875"/><stop stop-opacity="1" stop-color="rgb(97.215271%, 0%, 0%)" offset="0.203125"/><stop stop-opacity="1" stop-color="rgb(96.94519%, 0%, 0%)" offset="0.21875"/><stop stop-opacity="1" stop-color="rgb(96.676636%, 0%, 0%)" offset="0.234375"/><stop stop-opacity="1" stop-color="rgb(96.408081%, 0%, 0%)" offset="0.25"/><stop stop-opacity="1" stop-color="rgb(96.138%, 0%, 0%)" offset="0.265625"/><stop stop-opacity="1" stop-color="rgb(95.869446%, 0%, 0%)" offset="0.28125"/><stop stop-opacity="1" stop-color="rgb(95.600891%, 0%, 0%)" offset="0.296875"/><stop stop-opacity="1" stop-color="rgb(95.330811%, 0%, 0%)" offset="0.3125"/><stop stop-opacity="1" stop-color="rgb(95.062256%, 0%, 0%)" offset="0.328125"/><stop stop-opacity="1" stop-color="rgb(94.792175%, 0%, 0%)" offset="0.34375"/><stop stop-opacity="1" stop-color="rgb(94.523621%, 0%, 0%)" offset="0.359375"/><stop stop-opacity="1" stop-color="rgb(94.255066%, 0%, 0%)" offset="0.375"/><stop stop-opacity="1" stop-color="rgb(93.984985%, 0%, 0%)" offset="0.390625"/><stop stop-opacity="1" stop-color="rgb(93.716431%, 0%, 0%)" offset="0.40625"/><stop stop-opacity="1" stop-color="rgb(93.447876%, 0%, 0%)" offset="0.421875"/><stop stop-opacity="1" stop-color="rgb(93.177795%, 0%, 0%)" offset="0.4375"/><stop stop-opacity="1" stop-color="rgb(92.909241%, 0%, 0%)" offset="0.453125"/><stop stop-opacity="1" stop-color="rgb(92.63916%, 0%, 0%)" offset="0.46875"/><stop stop-opacity="1" stop-color="rgb(92.370605%, 0%, 0%)" offset="0.484375"/><stop stop-opacity="1" stop-color="rgb(92.102051%, 0%, 0%)" offset="0.5"/><stop stop-opacity="1" stop-color="rgb(91.83197%, 0%, 0%)" offset="0.515625"/><stop stop-opacity="1" stop-color="rgb(91.563416%, 0%, 0%)" offset="0.53125"/><stop stop-opacity="1" stop-color="rgb(91.293335%, 0%, 0%)" offset="0.546875"/><stop stop-opacity="1" stop-color="rgb(91.02478%, 0%, 0%)" offset="0.5625"/><stop stop-opacity="1" stop-color="rgb(90.756226%, 0%, 0%)" offset="0.578125"/><stop stop-opacity="1" stop-color="rgb(90.486145%, 0%, 0%)" offset="0.59375"/><stop stop-opacity="1" stop-color="rgb(90.21759%, 0%, 0%)" offset="0.609375"/><stop stop-opacity="1" stop-color="rgb(89.949036%, 0%, 0%)" offset="0.625"/><stop stop-opacity="1" stop-color="rgb(89.678955%, 0%, 0%)" offset="0.640625"/><stop stop-opacity="1" stop-color="rgb(89.4104%, 0%, 0%)" offset="0.65625"/><stop stop-opacity="1" stop-color="rgb(89.14032%, 0%, 0%)" offset="0.671875"/><stop stop-opacity="1" stop-color="rgb(88.851929%, 0%, 0%)" offset="0.6875"/><stop stop-opacity="1" stop-color="rgb(88.545227%, 0%, 0%)" offset="0.703125"/><stop stop-opacity="1" stop-color="rgb(88.235474%, 0%, 0%)" offset="0.71875"/><stop stop-opacity="1" stop-color="rgb(87.927246%, 0%, 0%)" offset="0.734375"/><stop stop-opacity="1" stop-color="rgb(87.617493%, 0%, 0%)" offset="0.75"/><stop stop-opacity="1" stop-color="rgb(87.309265%, 0%, 0%)" offset="0.765625"/><stop stop-opacity="1" stop-color="rgb(87.001038%, 0%, 0%)" offset="0.78125"/><stop stop-opacity="1" stop-color="rgb(86.691284%, 0%, 0%)" offset="0.796875"/><stop stop-opacity="1" stop-color="rgb(86.383057%, 0%, 0%)" offset="0.8125"/><stop stop-opacity="1" stop-color="rgb(86.074829%, 0%, 0%)" offset="0.828125"/><stop stop-opacity="1" stop-color="rgb(85.765076%, 0%, 0%)" offset="0.84375"/><stop stop-opacity="1" stop-color="rgb(85.456848%, 0%, 0%)" offset="0.859375"/><stop stop-opacity="1" stop-color="rgb(85.148621%, 0%, 0%)" offset="0.875"/><stop stop-opacity="1" stop-color="rgb(84.838867%, 0%, 0%)" offset="0.890625"/><stop stop-opacity="1" stop-color="rgb(84.53064%, 0%, 0%)" offset="0.90625"/><stop stop-opacity="1" stop-color="rgb(84.222412%, 0%, 0%)" offset="0.921875"/><stop stop-opacity="1" stop-color="rgb(83.912659%, 0%, 0%)" offset="0.9375"/><stop stop-opacity="1" stop-color="rgb(83.604431%, 0%, 0%)" offset="0.953125"/><stop stop-opacity="1" stop-color="rgb(83.296204%, 0%, 0%)" offset="0.96875"/><stop stop-opacity="1" stop-color="rgb(82.98645%, 0%, 0%)" offset="0.984375"/><stop stop-opacity="1" stop-color="rgb(82.765198%, 0%, 0%)" offset="1"/></linearGradient><clipPath id="91f65878a5"><path d="M 126.324219 33.601562 L 134.574219 33.601562 L 134.574219 41.851562 L 126.324219 41.851562 Z M 126.324219 33.601562 " clip-rule="nonzero"/></clipPath><clipPath id="d53a318742"><path d="M 126.324219 33.601562 L 134.574219 33.601562 L 134.574219 41 L 126.324219 41 Z M 126.324219 33.601562 " clip-rule="nonzero"/></clipPath><clipPath id="7dec34470c"><path d="M 133.75 34.546875 C 133.542969 34.285156 133.15625 33.972656 132.515625 33.972656 C 131.535156 33.972656 130.96875 34.722656 130.816406 34.957031 L 130.792969 34.992188 L 130.644531 35.230469 L 130.449219 35.535156 L 130.253906 35.230469 L 130.105469 34.992188 L 130.082031 34.957031 C 129.929688 34.722656 129.363281 33.972656 128.382812 33.972656 C 127.742188 33.972656 127.355469 34.285156 127.148438 34.546875 C 126.882812 34.878906 126.734375 35.320312 126.734375 35.769531 C 126.734375 36.703125 127.191406 37.507812 127.53125 38.03125 C 127.914062 38.621094 128.914062 39.535156 129.691406 40.222656 C 129.71875 40.246094 129.746094 40.269531 129.773438 40.296875 C 129.960938 40.445312 130.195312 40.53125 130.453125 40.53125 C 130.707031 40.53125 130.941406 40.445312 131.128906 40.296875 C 131.15625 40.273438 131.183594 40.25 131.210938 40.222656 C 131.988281 39.535156 132.988281 38.621094 133.371094 38.03125 C 133.617188 37.65625 133.792969 37.324219 133.921875 36.996094 C 134.085938 36.574219 134.171875 36.171875 134.171875 35.769531 C 134.164062 35.320312 134.015625 34.875 133.75 34.546875 Z M 133.75 34.546875 " clip-rule="nonzero"/></clipPath><linearGradient x1="250" gradientTransform="matrix(0.0242718, 0, 0, 0.0243791, 124.38124, 31.630729)" y1="96.09993" x2="250" gradientUnits="userSpaceOnUse" y2="365.099909" id="b1ca257b04"><stop stop-opacity="1" stop-color="rgb(100%, 100%, 100%)" offset="0"/><stop stop-opacity="1" stop-color="rgb(100%, 100%, 100%)" offset="0.03125"/><stop stop-opacity="1" stop-color="rgb(100%, 100%, 100%)" offset="0.0390625"/><stop stop-opacity="1" stop-color="rgb(100%, 98.855591%, 98.855591%)" offset="0.0429687"/><stop stop-opacity="1" stop-color="rgb(100%, 97.711182%, 97.711182%)" offset="0.046875"/><stop stop-opacity="1" stop-color="rgb(100%, 95.991516%, 95.991516%)" offset="0.0507812"/><stop stop-opacity="1" stop-color="rgb(100%, 94.273376%, 94.273376%)" offset="0.0546875"/><stop stop-opacity="1" stop-color="rgb(100%, 92.555237%, 92.555237%)" offset="0.0585937"/><stop stop-opacity="1" stop-color="rgb(100%, 90.837097%, 90.837097%)" offset="0.0625"/><stop stop-opacity="1" stop-color="rgb(100%, 88.935852%, 88.935852%)" offset="0.0664062"/><stop stop-opacity="1" stop-color="rgb(100%, 87.036133%, 87.036133%)" offset="0.0703125"/><stop stop-opacity="1" stop-color="rgb(100%, 84.927368%, 84.927368%)" offset="0.0742187"/><stop stop-opacity="1" stop-color="rgb(100%, 82.820129%, 82.820129%)" offset="0.078125"/><stop stop-opacity="1" stop-color="rgb(100%, 80.711365%, 80.711365%)" offset="0.0820312"/><stop stop-opacity="1" stop-color="rgb(100%, 78.604126%, 78.604126%)" offset="0.0859375"/><stop stop-opacity="1" stop-color="rgb(100%, 76.495361%, 76.495361%)" offset="0.0898437"/><stop stop-opacity="1" stop-color="rgb(100%, 74.388123%, 74.388123%)" offset="0.09375"/><stop stop-opacity="1" stop-color="rgb(100%, 72.280884%, 72.280884%)" offset="0.0976562"/><stop stop-opacity="1" stop-color="rgb(100%, 70.173645%, 70.173645%)" offset="0.101562"/><stop stop-opacity="1" stop-color="rgb(100%, 68.06488%, 68.06488%)" offset="0.105469"/><stop stop-opacity="1" stop-color="rgb(100%, 65.957642%, 65.957642%)" offset="0.109375"/><stop stop-opacity="1" stop-color="rgb(100%, 63.848877%, 63.848877%)" offset="0.113281"/><stop stop-opacity="1" stop-color="rgb(100%, 61.741638%, 61.741638%)" offset="0.117187"/><stop stop-opacity="1" stop-color="rgb(100%, 59.53064%, 59.53064%)" offset="0.121094"/><stop stop-opacity="1" stop-color="rgb(100%, 57.319641%, 57.319641%)" offset="0.125"/><stop stop-opacity="1" stop-color="rgb(100%, 55.06134%, 55.06134%)" offset="0.128906"/><stop stop-opacity="1" stop-color="rgb(100%, 52.80304%, 52.80304%)" offset="0.132812"/><stop stop-opacity="1" stop-color="rgb(100%, 50.543213%, 50.543213%)" offset="0.136719"/><stop stop-opacity="1" stop-color="rgb(100%, 48.284912%, 48.284912%)" offset="0.140625"/><stop stop-opacity="1" stop-color="rgb(100%, 46.026611%, 46.026611%)" offset="0.144531"/><stop stop-opacity="1" stop-color="rgb(100%, 43.768311%, 43.768311%)" offset="0.148438"/><stop stop-opacity="1" stop-color="rgb(100%, 41.508484%, 41.508484%)" offset="0.152344"/><stop stop-opacity="1" stop-color="rgb(100%, 39.250183%, 39.250183%)" offset="0.15625"/><stop stop-opacity="1" stop-color="rgb(100%, 36.991882%, 36.991882%)" offset="0.160156"/><stop stop-opacity="1" stop-color="rgb(100%, 34.733582%, 34.733582%)" offset="0.164062"/><stop stop-opacity="1" stop-color="rgb(100%, 32.473755%, 32.473755%)" offset="0.167969"/><stop stop-opacity="1" stop-color="rgb(100%, 30.215454%, 30.215454%)" offset="0.171875"/><stop stop-opacity="1" stop-color="rgb(100%, 27.957153%, 27.957153%)" offset="0.175781"/><stop stop-opacity="1" stop-color="rgb(100%, 25.698853%, 25.698853%)" offset="0.179687"/><stop stop-opacity="1" stop-color="rgb(100%, 23.439026%, 23.439026%)" offset="0.183594"/><stop stop-opacity="1" stop-color="rgb(100%, 21.180725%, 21.180725%)" offset="0.1875"/><stop stop-opacity="1" stop-color="rgb(100%, 18.922424%, 18.922424%)" offset="0.191406"/><stop stop-opacity="1" stop-color="rgb(100%, 16.664124%, 16.664124%)" offset="0.195312"/><stop stop-opacity="1" stop-color="rgb(100%, 14.312744%, 14.312744%)" offset="0.199219"/><stop stop-opacity="1" stop-color="rgb(100%, 11.962891%, 11.962891%)" offset="0.203125"/><stop stop-opacity="1" stop-color="rgb(100%, 9.571838%, 9.571838%)" offset="0.207031"/><stop stop-opacity="1" stop-color="rgb(100%, 7.180786%, 7.180786%)" offset="0.210937"/><stop stop-opacity="1" stop-color="rgb(100%, 4.789734%, 4.789734%)" offset="0.214844"/><stop stop-opacity="1" stop-color="rgb(100%, 2.400208%, 2.400208%)" offset="0.21875"/><stop stop-opacity="1" stop-color="rgb(100%, 1.325989%, 1.199341%)" offset="0.222656"/><stop stop-opacity="1" stop-color="rgb(100%, 0.25177%, 0%)" offset="0.226562"/><stop stop-opacity="1" stop-color="rgb(100%, 0.505066%, 0%)" offset="0.230469"/><stop stop-opacity="1" stop-color="rgb(100%, 0.759888%, 0%)" offset="0.234375"/><stop stop-opacity="1" stop-color="rgb(100%, 1.013184%, 0%)" offset="0.238281"/><stop stop-opacity="1" stop-color="rgb(100%, 1.268005%, 0%)" offset="0.242187"/><stop stop-opacity="1" stop-color="rgb(100%, 1.521301%, 0%)" offset="0.246094"/><stop stop-opacity="1" stop-color="rgb(100%, 1.776123%, 0%)" offset="0.25"/><stop stop-opacity="1" stop-color="rgb(100%, 2.029419%, 0%)" offset="0.253906"/><stop stop-opacity="1" stop-color="rgb(100%, 2.282715%, 0%)" offset="0.257812"/><stop stop-opacity="1" stop-color="rgb(100%, 2.536011%, 0%)" offset="0.261719"/><stop stop-opacity="1" stop-color="rgb(100%, 2.790833%, 0%)" offset="0.265625"/><stop stop-opacity="1" stop-color="rgb(100%, 3.044128%, 0%)" offset="0.269531"/><stop stop-opacity="1" stop-color="rgb(100%, 3.29895%, 0%)" offset="0.273437"/><stop stop-opacity="1" stop-color="rgb(100%, 3.552246%, 0%)" offset="0.277344"/><stop stop-opacity="1" stop-color="rgb(100%, 3.807068%, 0%)" offset="0.28125"/><stop stop-opacity="1" stop-color="rgb(100%, 3.990173%, 0%)" offset="0.289062"/><stop stop-opacity="1" stop-color="rgb(100%, 4.3396%, 0%)" offset="0.296875"/><stop stop-opacity="1" stop-color="rgb(100%, 4.675293%, 0%)" offset="0.304687"/><stop stop-opacity="1" stop-color="rgb(100%, 5.00946%, 0%)" offset="0.3125"/><stop stop-opacity="1" stop-color="rgb(100%, 5.345154%, 0%)" offset="0.320312"/><stop stop-opacity="1" stop-color="rgb(100%, 5.679321%, 0%)" offset="0.328125"/><stop stop-opacity="1" stop-color="rgb(100%, 6.015015%, 0%)" offset="0.335937"/><stop stop-opacity="1" stop-color="rgb(100%, 6.349182%, 0%)" offset="0.34375"/><stop stop-opacity="1" stop-color="rgb(100%, 6.68335%, 0%)" offset="0.351562"/><stop stop-opacity="1" stop-color="rgb(100%, 7.019043%, 0%)" offset="0.359375"/><stop stop-opacity="1" stop-color="rgb(100%, 7.35321%, 0%)" offset="0.367187"/><stop stop-opacity="1" stop-color="rgb(100%, 7.688904%, 0%)" offset="0.375"/><stop stop-opacity="1" stop-color="rgb(100%, 8.023071%, 0%)" offset="0.382812"/><stop stop-opacity="1" stop-color="rgb(100%, 8.358765%, 0%)" offset="0.390625"/><stop stop-opacity="1" stop-color="rgb(100%, 8.692932%, 0%)" offset="0.398437"/><stop stop-opacity="1" stop-color="rgb(100%, 8.972168%, 0%)" offset="0.40625"/><stop stop-opacity="1" stop-color="rgb(100%, 9.233093%, 0%)" offset="0.421875"/><stop stop-opacity="1" stop-color="rgb(100%, 9.527588%, 0%)" offset="0.4375"/><stop stop-opacity="1" stop-color="rgb(100%, 9.822083%, 0%)" offset="0.453125"/><stop stop-opacity="1" stop-color="rgb(100%, 10.116577%, 0%)" offset="0.46875"/><stop stop-opacity="1" stop-color="rgb(100%, 10.411072%, 0%)" offset="0.484375"/><stop stop-opacity="1" stop-color="rgb(100%, 10.707092%, 0%)" offset="0.5"/><stop stop-opacity="1" stop-color="rgb(99.838257%, 10.662842%, 0%)" offset="0.53125"/><stop stop-opacity="1" stop-color="rgb(99.571228%, 10.296631%, 0%)" offset="0.546875"/><stop stop-opacity="1" stop-color="rgb(99.359131%, 9.947205%, 0%)" offset="0.5625"/><stop stop-opacity="1" stop-color="rgb(99.145508%, 9.597778%, 0%)" offset="0.578125"/><stop stop-opacity="1" stop-color="rgb(98.933411%, 9.248352%, 0%)" offset="0.59375"/><stop stop-opacity="1" stop-color="rgb(98.719788%, 8.898926%, 0%)" offset="0.609375"/><stop stop-opacity="1" stop-color="rgb(98.50769%, 8.5495%, 0%)" offset="0.625"/><stop stop-opacity="1" stop-color="rgb(98.294067%, 8.200073%, 0%)" offset="0.640625"/><stop stop-opacity="1" stop-color="rgb(98.08197%, 7.850647%, 0%)" offset="0.65625"/><stop stop-opacity="1" stop-color="rgb(97.868347%, 7.501221%, 0%)" offset="0.671875"/><stop stop-opacity="1" stop-color="rgb(97.65625%, 7.151794%, 0%)" offset="0.6875"/><stop stop-opacity="1" stop-color="rgb(97.444153%, 6.802368%, 0%)" offset="0.703125"/><stop stop-opacity="1" stop-color="rgb(97.23053%, 6.454468%, 0%)" offset="0.71875"/><stop stop-opacity="1" stop-color="rgb(97.018433%, 6.105042%, 0%)" offset="0.734375"/><stop stop-opacity="1" stop-color="rgb(96.80481%, 5.755615%, 0%)" offset="0.75"/><stop stop-opacity="1" stop-color="rgb(96.592712%, 5.406189%, 0%)" offset="0.765625"/><stop stop-opacity="1" stop-color="rgb(96.379089%, 5.056763%, 0%)" offset="0.78125"/><stop stop-opacity="1" stop-color="rgb(96.166992%, 4.707336%, 0%)" offset="0.796875"/><stop stop-opacity="1" stop-color="rgb(95.953369%, 4.35791%, 0%)" offset="0.8125"/><stop stop-opacity="1" stop-color="rgb(95.741272%, 4.008484%, 0%)" offset="0.828125"/><stop stop-opacity="1" stop-color="rgb(95.527649%, 3.659058%, 0%)" offset="0.84375"/><stop stop-opacity="1" stop-color="rgb(95.315552%, 3.309631%, 0%)" offset="0.859375"/><stop stop-opacity="1" stop-color="rgb(95.103455%, 2.960205%, 0%)" offset="0.875"/><stop stop-opacity="1" stop-color="rgb(94.889832%, 2.610779%, 0%)" offset="0.890625"/><stop stop-opacity="1" stop-color="rgb(94.677734%, 2.261353%, 0%)" offset="0.90625"/><stop stop-opacity="1" stop-color="rgb(94.464111%, 1.911926%, 0%)" offset="0.921875"/><stop stop-opacity="1" stop-color="rgb(94.252014%, 1.5625%, 0%)" offset="0.9375"/><stop stop-opacity="1" stop-color="rgb(94.038391%, 1.213074%, 0%)" offset="0.953125"/><stop stop-opacity="1" stop-color="rgb(93.826294%, 0.863647%, 0%)" offset="0.96875"/><stop stop-opacity="1" stop-color="rgb(93.612671%, 0.514221%, 0%)" offset="0.984375"/><stop stop-opacity="1" stop-color="rgb(93.403625%, 0.169373%, 0%)" offset="1"/></linearGradient></defs><g clip-path="url(#106e597880)"><path fill="#000000" d="M 12.859375 3.789062 L 27.242188 18.175781 C 27.53125 18.464844 27.792969 18.78125 28.019531 19.121094 C 28.246094 19.460938 28.4375 19.820312 28.59375 20.199219 C 28.753906 20.578125 28.871094 20.964844 28.949219 21.367188 C 29.03125 21.769531 29.070312 22.175781 29.070312 22.585938 C 29.070312 22.996094 29.03125 23.398438 28.949219 23.800781 C 28.871094 24.203125 28.753906 24.59375 28.59375 24.972656 C 28.4375 25.351562 28.246094 25.710938 28.019531 26.050781 C 27.792969 26.390625 27.53125 26.707031 27.242188 26.996094 L 12.859375 41.378906 C 8.929688 45.308594 2.210938 42.523438 2.214844 36.964844 L 2.214844 8.195312 C 2.210938 2.644531 8.929688 -0.140625 12.859375 3.789062 Z M 12.859375 3.789062 " fill-opacity="1" fill-rule="nonzero"/></g><g clip-path="url(#3bd94d45e9)"><path fill="#000000" d="M 12.859375 3.789062 C 8.953125 -0.117188 2.308594 2.613281 2.214844 8.101562 C 2.214844 8.101562 24.851562 29.519531 21.253906 33.011719 L 27.257812 27.007812 C 27.546875 26.71875 27.804688 26.402344 28.03125 26.0625 C 28.257812 25.722656 28.453125 25.363281 28.609375 24.984375 C 28.765625 24.605469 28.882812 24.214844 28.964844 23.8125 C 29.042969 23.414062 29.082031 23.007812 29.082031 22.597656 C 29.082031 22.1875 29.042969 21.78125 28.964844 21.382812 C 28.882812 20.980469 28.765625 20.589844 28.609375 20.210938 C 28.453125 19.832031 28.257812 19.472656 28.03125 19.132812 C 27.804688 18.792969 27.546875 18.476562 27.257812 18.1875 Z M 12.859375 3.789062 " fill-opacity="1" fill-rule="nonzero"/></g><g clip-path="url(#836fdd1612)"><path fill="#000000" d="M 46.96875 5.828125 C 46.96875 6.097656 46.941406 6.363281 46.890625 6.625 C 46.835938 6.886719 46.757812 7.140625 46.65625 7.390625 C 46.554688 7.636719 46.429688 7.871094 46.28125 8.09375 C 46.132812 8.316406 45.960938 8.523438 45.773438 8.710938 C 45.585938 8.902344 45.378906 9.070312 45.15625 9.21875 C 44.933594 9.367188 44.699219 9.492188 44.453125 9.59375 C 44.203125 9.699219 43.949219 9.773438 43.6875 9.828125 C 43.425781 9.878906 43.160156 9.90625 42.890625 9.90625 C 42.625 9.90625 42.359375 9.878906 42.097656 9.828125 C 41.832031 9.773438 41.578125 9.699219 41.332031 9.59375 C 41.085938 9.492188 40.851562 9.367188 40.628906 9.21875 C 40.40625 9.070312 40.199219 8.902344 40.007812 8.710938 C 39.820312 8.523438 39.652344 8.316406 39.503906 8.09375 C 39.355469 7.871094 39.226562 7.636719 39.125 7.390625 C 39.023438 7.140625 38.945312 6.886719 38.894531 6.625 C 38.84375 6.363281 38.816406 6.097656 38.816406 5.828125 C 38.816406 5.5625 38.84375 5.296875 38.894531 5.035156 C 38.945312 4.773438 39.023438 4.515625 39.125 4.269531 C 39.226562 4.023438 39.355469 3.789062 39.503906 3.566406 C 39.652344 3.34375 39.820312 3.136719 40.007812 2.949219 C 40.199219 2.757812 40.40625 2.589844 40.628906 2.441406 C 40.851562 2.292969 41.085938 2.167969 41.332031 2.0625 C 41.578125 1.960938 41.832031 1.882812 42.097656 1.832031 C 42.359375 1.78125 42.625 1.753906 42.890625 1.753906 C 43.160156 1.753906 43.425781 1.78125 43.6875 1.832031 C 43.949219 1.882812 44.203125 1.960938 44.453125 2.0625 C 44.699219 2.167969 44.933594 2.292969 45.15625 2.441406 C 45.378906 2.589844 45.585938 2.757812 45.773438 2.949219 C 45.960938 3.136719 46.132812 3.34375 46.28125 3.566406 C 46.429688 3.789062 46.554688 4.023438 46.65625 4.269531 C 46.757812 4.515625 46.835938 4.773438 46.890625 5.035156 C 46.941406 5.296875 46.96875 5.5625 46.96875 5.828125 Z M 46.96875 5.828125 " fill-opacity="1" fill-rule="nonzero"/><path fill="#000000" d="M 46.96875 5.828125 C 46.96875 6.097656 46.941406 6.363281 46.890625 6.625 C 46.835938 6.886719 46.757812 7.140625 46.65625 7.390625 C 46.554688 7.636719 46.429688 7.871094 46.28125 8.09375 C 46.132812 8.316406 45.960938 8.523438 45.773438 8.710938 C 45.585938 8.902344 45.378906 9.070312 45.15625 9.21875 C 44.933594 9.367188 44.699219 9.492188 44.453125 9.59375 C 44.203125 9.699219 43.949219 9.773438 43.6875 9.828125 C 43.425781 9.878906 43.160156 9.90625 42.890625 9.90625 C 42.625 9.90625 42.359375 9.878906 42.097656 9.828125 C 41.832031 9.773438 41.578125 9.699219 41.332031 9.59375 C 41.085938 9.492188 40.851562 9.367188 40.628906 9.21875 C 40.40625 9.070312 40.199219 8.902344 40.007812 8.710938 C 39.820312 8.523438 39.652344 8.316406 39.503906 8.09375 C 39.355469 7.871094 39.226562 7.636719 39.125 7.390625 C 39.023438 7.140625 38.945312 6.886719 38.894531 6.625 C 38.84375 6.363281 38.816406 6.097656 38.816406 5.828125 C 38.816406 5.5625 38.84375 5.296875 38.894531 5.035156 C 38.945312 4.773438 39.023438 4.515625 39.125 4.269531 C 39.226562 4.023438 39.355469 3.789062 39.503906 3.566406 C 39.652344 3.34375 39.820312 3.136719 40.007812 2.949219 C 40.199219 2.757812 40.40625 2.589844 40.628906 2.441406 C 40.851562 2.292969 41.085938 2.167969 41.332031 2.0625 C 41.578125 1.960938 41.832031 1.882812 42.097656 1.832031 C 42.359375 1.78125 42.625 1.753906 42.890625 1.753906 C 43.160156 1.753906 43.425781 1.78125 43.6875 1.832031 C 43.949219 1.882812 44.203125 1.960938 44.453125 2.0625 C 44.699219 2.167969 44.933594 2.292969 45.15625 2.441406 C 45.378906 2.589844 45.585938 2.757812 45.773438 2.949219 C 45.960938 3.136719 46.132812 3.34375 46.28125 3.566406 C 46.429688 3.789062 46.554688 4.023438 46.65625 4.269531 C 46.757812 4.515625 46.835938 4.773438 46.890625 5.035156 C 46.941406 5.296875 46.96875 5.5625 46.96875 5.828125 Z M 46.96875 5.828125 " fill-opacity="1" fill-rule="nonzero"/></g><g clip-path="url(#5e90b6f1e0)"><path fill="#000000" d="M 45.140625 18.210938 L 30.753906 3.824219 C 26.890625 -0.0390625 16.597656 4.441406 20.121094 7.964844 L 30.464844 18.3125 C 30.753906 18.601562 31.015625 18.917969 31.242188 19.257812 C 31.46875 19.597656 31.660156 19.957031 31.820312 20.335938 C 31.976562 20.710938 32.09375 21.101562 32.171875 21.503906 C 32.253906 21.90625 32.292969 22.3125 32.292969 22.722656 C 32.292969 23.128906 32.253906 23.535156 32.171875 23.9375 C 32.09375 24.339844 31.976562 24.730469 31.820312 25.105469 C 31.660156 25.484375 31.46875 25.84375 31.242188 26.183594 C 31.015625 26.523438 30.753906 26.839844 30.464844 27.128906 L 20.128906 37.46875 C 16.976562 40.617188 26.929688 45.265625 30.753906 41.441406 L 45.140625 27.054688 C 45.429688 26.765625 45.691406 26.449219 45.917969 26.109375 C 46.148438 25.769531 46.34375 25.40625 46.5 25.027344 C 46.65625 24.648438 46.777344 24.257812 46.855469 23.855469 C 46.9375 23.449219 46.976562 23.042969 46.976562 22.632812 C 46.976562 22.222656 46.9375 21.816406 46.855469 21.410156 C 46.777344 21.007812 46.65625 20.617188 46.5 20.238281 C 46.34375 19.859375 46.148438 19.496094 45.917969 19.15625 C 45.691406 18.816406 45.429688 18.5 45.140625 18.210938 Z M 45.140625 18.210938 " fill-opacity="1" fill-rule="nonzero"/></g><path fill="#000000" d="M 45.140625 18.210938 L 30.753906 3.824219 C 26.890625 -0.0390625 16.597656 4.441406 20.121094 7.964844 L 30.464844 18.3125 C 31.496094 19.339844 32.089844 20.574219 32.25 22.019531 C 35.8125 26.207031 38.777344 30.269531 39.394531 32.800781 L 45.148438 27.046875 C 45.4375 26.753906 45.699219 26.441406 45.925781 26.097656 C 46.152344 25.757812 46.347656 25.398438 46.503906 25.019531 C 46.660156 24.640625 46.777344 24.25 46.859375 23.84375 C 46.9375 23.441406 46.980469 23.035156 46.976562 22.625 C 46.976562 22.214844 46.9375 21.808594 46.855469 21.40625 C 46.777344 21.003906 46.65625 20.613281 46.5 20.234375 C 46.339844 19.855469 46.148438 19.496094 45.917969 19.15625 C 45.691406 18.816406 45.429688 18.5 45.140625 18.210938 Z M 45.140625 18.210938 " fill-opacity="1" fill-rule="nonzero"/><g fill="#000000" fill-opacity="1"><g transform="translate(50.940613, 28.277313)"><g><path d="M 4.90625 0 L 4.90625 -5.179688 L 8.820312 -5.179688 C 12.078125 -5.179688 14.40625 -7.421875 14.40625 -10.765625 C 14.40625 -13.929688 12.054688 -16.230469 8.773438 -16.230469 L 1.933594 -16.230469 L 1.933594 0 Z M 4.90625 -13.582031 L 8.652344 -13.582031 C 10.226562 -13.582031 11.433594 -12.246094 11.433594 -10.765625 C 11.433594 -9.09375 10.226562 -7.828125 8.675781 -7.828125 L 4.90625 -7.828125 Z M 4.90625 -13.582031 "/></g></g></g><g fill="#000000" fill-opacity="1"><g transform="translate(65.712906, 28.277313)"><g><path d="M 3.113281 -14.179688 C 4.285156 -14.179688 4.941406 -14.90625 4.941406 -15.835938 C 4.941406 -16.730469 4.285156 -17.484375 3.125 -17.484375 C 1.992188 -17.484375 1.335938 -16.730469 1.335938 -15.835938 C 1.335938 -14.917969 2.003906 -14.179688 3.113281 -14.179688 Z M 4.582031 0 L 4.582031 -12.269531 L 1.695312 -12.269531 L 1.695312 0 Z M 4.582031 0 "/></g></g></g><g fill="#000000" fill-opacity="1"><g transform="translate(71.977408, 28.277313)"><g><path d="M 7.160156 0.371094 C 10.3125 0.371094 12.625 -1.648438 13.257812 -4.488281 L 10.324219 -4.488281 C 9.785156 -2.960938 8.570312 -2.304688 7.171875 -2.304688 C 5.40625 -2.304688 3.6875 -3.710938 3.6875 -6.132812 C 3.6875 -8.546875 5.394531 -9.953125 7.171875 -9.953125 C 8.570312 -9.953125 9.773438 -9.296875 10.324219 -7.9375 L 13.269531 -7.9375 C 12.578125 -10.632812 10.324219 -12.640625 7.160156 -12.640625 C 3.496094 -12.640625 0.824219 -9.703125 0.824219 -6.132812 C 0.824219 -2.554688 3.496094 0.371094 7.160156 0.371094 Z M 7.160156 0.371094 "/></g></g></g><g fill="#000000" fill-opacity="1"><g transform="translate(85.878637, 28.277313)"><g><path d="M 9.238281 0 L 9.238281 -2.398438 L 7.339844 -2.398438 C 6.421875 -2.398438 5.5625 -2.816406 5.5625 -4.535156 L 5.5625 -9.785156 L 9.238281 -9.785156 L 9.238281 -12.269531 L 5.5625 -12.269531 L 5.5625 -15.886719 L 2.671875 -15.859375 L 2.671875 -12.269531 L 0.132812 -12.269531 L 0.132812 -9.785156 L 2.671875 -9.785156 L 2.671875 -4.667969 C 2.671875 -0.621094 4.894531 0 6.742188 0 Z M 9.238281 0 "/></g></g></g><g fill="#000000" fill-opacity="1"><g transform="translate(95.758652, 28.277313)"><g><path d="M 7.269531 0.371094 C 11.050781 0.371094 13.761719 -2.519531 13.761719 -6.132812 C 13.761719 -9.726562 11.050781 -12.640625 7.28125 -12.640625 C 3.519531 -12.640625 0.824219 -9.714844 0.824219 -6.132812 C 0.824219 -2.53125 3.53125 0.371094 7.269531 0.371094 Z M 7.292969 -2.316406 C 5.226562 -2.316406 3.6875 -3.914062 3.6875 -6.132812 C 3.6875 -8.34375 5.226562 -9.964844 7.292969 -9.964844 C 9.355469 -9.964844 10.894531 -8.34375 10.894531 -6.132812 C 10.894531 -3.914062 9.355469 -2.316406 7.292969 -2.316406 Z M 7.292969 -2.316406 "/></g></g></g><g fill="#000000" fill-opacity="1"><g transform="translate(110.340027, 28.277313)"><g><path d="M 4.582031 0 L 4.582031 -5.703125 C 4.582031 -8.320312 5.929688 -9.785156 7.914062 -9.785156 L 9.070312 -9.785156 L 9.070312 -12.269531 L 7.757812 -12.269531 C 6.160156 -12.269531 5.035156 -11.398438 4.464844 -10.050781 L 4.464844 -12.269531 L 1.695312 -12.269531 L 1.695312 0 Z M 4.582031 0 "/></g></g></g><g fill="#000000" fill-opacity="1"><g transform="translate(119.778544, 28.277313)"><g><path d="M 3.113281 -14.179688 C 4.285156 -14.179688 4.941406 -14.90625 4.941406 -15.835938 C 4.941406 -16.730469 4.285156 -17.484375 3.125 -17.484375 C 1.992188 -17.484375 1.335938 -16.730469 1.335938 -15.835938 C 1.335938 -14.917969 2.003906 -14.179688 3.113281 -14.179688 Z M 4.582031 0 L 4.582031 -12.269531 L 1.695312 -12.269531 L 1.695312 0 Z M 4.582031 0 "/></g></g></g><g fill="#000000" fill-opacity="1"><g transform="translate(126.043047, 28.277313)"><g><path d="M 7.269531 0.371094 C 11.050781 0.371094 13.761719 -2.519531 13.761719 -6.132812 C 13.761719 -9.726562 11.050781 -12.640625 7.28125 -12.640625 C 3.519531 -12.640625 0.824219 -9.714844 0.824219 -6.132812 C 0.824219 -2.53125 3.53125 0.371094 7.269531 0.371094 Z M 7.292969 -2.316406 C 5.226562 -2.316406 3.6875 -3.914062 3.6875 -6.132812 C 3.6875 -8.34375 5.226562 -9.964844 7.292969 -9.964844 C 9.355469 -9.964844 10.894531 -8.34375 10.894531 -6.132812 C 10.894531 -3.914062 9.355469 -2.316406 7.292969 -2.316406 Z M 7.292969 -2.316406 "/></g></g></g><g clip-path="url(#280dc51b18)"><path fill="#000000" d="M 97.652344 30.121094 C 99.308594 30.242188 101.394531 30.425781 103.480469 30.546875 C 104.34375 30.597656 105.214844 30.507812 106.082031 30.503906 C 110.132812 30.492188 114.183594 30.476562 118.234375 30.476562 C 122.457031 30.476562 126.683594 30.4375 130.90625 30.519531 C 132.996094 30.5625 135.09375 30.726562 137.089844 31.457031 C 137.84375 31.730469 138.027344 32.433594 137.488281 33.027344 C 137.128906 33.425781 136.992188 33.769531 137.089844 34.378906 C 137.1875 34.953125 136.84375 35.621094 136.625 36.222656 C 136.503906 36.5625 136.328125 36.78125 136.710938 37.117188 C 136.9375 37.316406 137.015625 37.789062 137.003906 38.132812 C 136.980469 38.664062 137.046875 39.054688 137.535156 39.390625 C 138.089844 39.769531 138.332031 40.328125 138.335938 41.066406 C 138.339844 41.910156 137.886719 42.609375 137.792969 43.390625 C 137.703125 44.132812 137.238281 44.023438 136.769531 44.023438 C 136.597656 44.023438 136.351562 43.953125 136.261719 44.039062 C 135.8125 44.496094 135.285156 44.328125 134.761719 44.304688 C 133.9375 44.265625 133.113281 44.28125 132.289062 44.234375 C 132.09375 44.226562 123.957031 44.085938 123.074219 44.082031 C 122.0625 44.078125 121.050781 44.085938 120.039062 44.070312 C 118.191406 44.042969 116.347656 43.996094 114.5 43.964844 C 113.738281 43.953125 112.976562 43.941406 112.21875 43.976562 C 110.832031 44.046875 109.457031 44.292969 108.0625 44.042969 C 107.367188 43.917969 106.664062 43.800781 105.960938 43.773438 C 104.386719 43.707031 102.808594 43.652344 101.234375 43.671875 C 99.421875 43.699219 97.605469 43.753906 95.800781 43.90625 C 93.929688 44.066406 92.496094 43.273438 91.140625 42.132812 C 90.351562 41.46875 89.871094 40.644531 89.550781 39.691406 C 89.425781 39.324219 89.488281 39.132812 89.914062 39.097656 C 90.195312 39.078125 90.480469 39.007812 90.757812 38.925781 C 90.820312 38.902344 90.890625 38.714844 90.867188 38.628906 C 90.761719 38.289062 90.566406 37.972656 90.507812 37.632812 C 90.308594 36.453125 89.597656 35.523438 89.066406 34.507812 C 88.90625 34.195312 88.789062 33.855469 88.703125 33.511719 C 88.667969 33.375 88.734375 33.09375 88.824219 33.0625 C 89.257812 32.894531 89.167969 32.605469 89.089844 32.285156 C 88.910156 31.550781 88.953125 31.566406 89.65625 31.277344 C 92.113281 30.261719 94.746094 30.269531 97.652344 30.121094 " fill-opacity="1" fill-rule="nonzero"/></g><g clip-path="url(#d02435a92d)"><g clip-path="url(#f07563a283)"><path fill="url(#bc5846d2e8)" d="M 126.324219 33.605469 L 126.324219 41.847656 L 134.574219 41.847656 L 134.574219 33.605469 Z M 126.324219 33.605469 " fill-rule="nonzero"/></g></g><g clip-path="url(#91f65878a5)"><path fill="#af0000" d="M 132.515625 33.785156 C 133.25 33.785156 133.691406 34.144531 133.929688 34.445312 C 134.226562 34.816406 134.394531 35.3125 134.394531 35.8125 C 134.394531 36.246094 134.3125 36.675781 134.132812 37.125 C 133.996094 37.46875 133.816406 37.8125 133.5625 38.203125 C 132.957031 39.128906 130.964844 41.25 130.453125 41.644531 C 129.933594 41.253906 127.945312 39.128906 127.34375 38.203125 C 126.984375 37.65625 126.507812 36.808594 126.507812 35.8125 C 126.507812 35.3125 126.675781 34.816406 126.972656 34.445312 C 127.214844 34.144531 127.652344 33.785156 128.386719 33.785156 C 129.484375 33.785156 130.113281 34.617188 130.277344 34.875 L 130.304688 34.914062 L 130.453125 35.148438 L 130.605469 34.914062 L 130.628906 34.875 C 130.792969 34.617188 131.417969 33.785156 132.515625 33.785156 M 132.515625 33.605469 C 131.324219 33.605469 130.652344 34.503906 130.472656 34.777344 L 130.449219 34.816406 L 130.425781 34.777344 C 130.246094 34.503906 129.574219 33.605469 128.382812 33.605469 C 126.984375 33.605469 126.324219 34.8125 126.324219 35.808594 C 126.324219 36.804688 126.773438 37.65625 127.191406 38.300781 C 127.816406 39.265625 129.96875 41.554688 130.410156 41.832031 C 130.421875 41.839844 130.4375 41.84375 130.449219 41.84375 C 130.460938 41.84375 130.476562 41.839844 130.488281 41.832031 C 130.925781 41.558594 133.078125 39.265625 133.707031 38.300781 C 134.128906 37.660156 134.574219 36.808594 134.574219 35.808594 C 134.574219 34.808594 133.914062 33.605469 132.515625 33.605469 Z M 132.515625 33.605469 " fill-opacity="1" fill-rule="nonzero"/></g><g clip-path="url(#d53a318742)"><g clip-path="url(#7dec34470c)"><path fill="url(#b1ca257b04)" d="M 126.734375 33.972656 L 126.734375 40.53125 L 134.171875 40.53125 L 134.171875 33.972656 Z M 126.734375 33.972656 " fill-rule="nonzero"/></g></g><g fill="#ffffff" fill-opacity="1"><g transform="translate(93.697205, 39.423012)"><g><path d="M 3.097656 -1.722656 L 3.097656 -2.492188 L 0.449219 -2.492188 L 0.449219 -1.722656 Z M 3.097656 -1.722656 "/></g></g></g><g fill="#ffffff" fill-opacity="1"><g transform="translate(97.24378, 39.423012)"><g><path d="M 1.59375 0 L 1.59375 -3.734375 L 3.15625 -1.570312 L 3.414062 -1.570312 L 4.992188 -3.726562 L 4.992188 0 L 5.957031 0 L 5.957031 -5.269531 L 5.117188 -5.269531 L 3.285156 -2.8125 L 1.46875 -5.269531 L 0.628906 -5.269531 L 0.628906 0 Z M 1.59375 0 "/></g></g><g transform="translate(103.825294, 39.423012)"><g><path d="M 2.144531 0.121094 C 2.789062 0.121094 3.316406 -0.175781 3.578125 -0.671875 L 3.578125 0 L 4.46875 0 L 4.46875 -3.984375 L 3.578125 -3.984375 L 3.578125 -3.308594 C 3.320312 -3.804688 2.789062 -4.105469 2.140625 -4.105469 C 1.074219 -4.105469 0.265625 -3.15625 0.265625 -1.992188 C 0.265625 -0.820312 1.066406 0.121094 2.144531 0.121094 Z M 2.367188 -0.75 C 1.738281 -0.75 1.199219 -1.21875 1.199219 -1.992188 C 1.199219 -2.742188 1.726562 -3.238281 2.367188 -3.238281 C 3.019531 -3.238281 3.539062 -2.6875 3.539062 -1.992188 C 3.539062 -1.285156 3.023438 -0.75 2.367188 -0.75 Z M 2.367188 -0.75 "/></g></g><g transform="translate(108.844765, 39.423012)"><g><path d="M 1.984375 0.121094 C 2.945312 0.121094 3.660156 -0.304688 3.660156 -1.183594 C 3.660156 -2.027344 3.015625 -2.265625 2.191406 -2.390625 C 1.503906 -2.5 1.355469 -2.597656 1.355469 -2.894531 C 1.355469 -3.136719 1.535156 -3.335938 1.9375 -3.335938 C 2.371094 -3.335938 2.605469 -3.128906 2.625 -2.832031 L 3.542969 -2.824219 C 3.542969 -3.585938 2.894531 -4.105469 1.933594 -4.105469 C 0.960938 -4.105469 0.433594 -3.609375 0.433594 -2.875 C 0.433594 -2.050781 1.09375 -1.746094 1.859375 -1.644531 C 2.402344 -1.5625 2.703125 -1.464844 2.703125 -1.128906 C 2.703125 -0.824219 2.476562 -0.625 1.992188 -0.625 C 1.457031 -0.625 1.1875 -0.898438 1.171875 -1.261719 L 0.269531 -1.265625 C 0.269531 -0.566406 0.8125 0.121094 1.984375 0.121094 Z M 1.984375 0.121094 "/></g></g><g transform="translate(112.728556, 39.423012)"><g><path d="M 2.339844 0.121094 C 3.394531 0.121094 4.210938 -0.4375 4.210938 -1.855469 L 4.210938 -3.984375 L 3.273438 -3.984375 L 3.273438 -1.882812 C 3.273438 -1.15625 2.964844 -0.75 2.335938 -0.75 C 1.714844 -0.75 1.394531 -1.148438 1.394531 -1.882812 L 1.394531 -3.984375 L 0.464844 -3.984375 L 0.464844 -1.855469 C 0.464844 -0.4375 1.273438 0.121094 2.339844 0.121094 Z M 2.339844 0.121094 "/></g></g><g transform="translate(117.403059, 39.423012)"><g><path d="M 5.433594 -4.105469 C 4.863281 -4.105469 4.378906 -3.816406 4.039062 -3.207031 C 3.816406 -3.789062 3.375 -4.105469 2.710938 -4.105469 C 2.121094 -4.105469 1.644531 -3.785156 1.4375 -3.363281 L 1.425781 -3.984375 L 0.550781 -3.984375 L 0.550781 0 L 1.476562 0 L 1.476562 -2.035156 C 1.476562 -2.753906 1.933594 -3.242188 2.4375 -3.242188 C 2.949219 -3.242188 3.273438 -2.914062 3.273438 -2.128906 L 3.273438 0 L 4.203125 0 L 4.203125 -2.035156 C 4.203125 -2.753906 4.664062 -3.242188 5.164062 -3.242188 C 5.679688 -3.242188 6.003906 -2.914062 6.003906 -2.128906 L 6.003906 0 L 6.929688 0 L 6.929688 -2.148438 C 6.929688 -3.398438 6.433594 -4.105469 5.433594 -4.105469 Z M 5.433594 -4.105469 "/></g></g></g></svg>